<svg xmlns="http://www.w3.org/2000/svg"  viewBox="0 0 48 48" width="96px" height="96px"><linearGradient id="SVGID_1_" x1="37.375" x2="8.299" y1="10.625" y2="39.701" gradientUnits="userSpaceOnUse"><stop offset="0" stop-color="#6560fe"/><stop offset=".033" stop-color="#6f6afe"/><stop offset=".197" stop-color="#9a97fe"/><stop offset=".362" stop-color="#bfbdff"/><stop offset=".525" stop-color="#dbdaff"/><stop offset=".687" stop-color="#efeeff"/><stop offset=".846" stop-color="#fbfbff"/><stop offset="1" stop-color="#fff"/></linearGradient><path fill="url(#SVGID_1_)" d="M37.9,27.071c3.56-3.56,4.408-8.798,2.559-13.166l-6.449,6.449l-5.43-1.188l-0.934-5.176l6.449-6.449 C29.728,5.692,24.49,6.54,20.929,10.1c-3.283,3.283-4.257,7.993-2.94,12.132L8.201,32.02c-2.148,2.148-2.148,5.63,0,7.778l0,0 c2.148,2.148,5.63,2.148,7.778,0l9.788-9.788C29.907,31.328,34.617,30.354,37.9,27.071z"/><g><path fill="none" stroke="#8251fe" stroke-linecap="round" stroke-linejoin="round" stroke-miterlimit="10" stroke-width="3" d="M21.719,34.059l4.049-4.049c4.139,1.317,8.849,0.343,12.132-2.94c3.56-3.56,4.408-8.798,2.559-13.166 l-6.449,6.449l-5.43-1.188l-0.934-5.176l6.449-6.449c-3.861-1.634-8.402-1.161-11.863,1.429"/><path fill="none" stroke="#8251fe" stroke-linecap="round" stroke-linejoin="round" stroke-miterlimit="10" stroke-width="3" d="M18.092,14.612c-0.858,2.459-0.891,5.142-0.102,7.62L8.201,32.02c-2.148,2.148-2.148,5.63,0,7.778l0,0 c2.148,2.148,5.63,2.148,7.778,0l1.793-1.793"/></g></svg>